<svg width="42" height="42" viewBox="0 0 42 42" fill="none" xmlns="http://www.w3.org/2000/svg">
<rect width="42" height="42" rx="5" fill="#4EBBB8" fill-opacity="0.1"/>
<g clip-path="url(#clip0_1481_5966)">
<path d="M26.8511 26.9194C26.5191 26.9191 26.1915 26.9963 25.8945 27.1448L24.404 25.6544C24.3405 25.5908 24.2651 25.5404 24.1821 25.5061C24.0991 25.4717 24.0102 25.454 23.9204 25.454H21.6736V26.8221H23.637L24.9271 28.1122C24.208 29.5034 25.278 31.2392 26.8512 31.2182C29.6986 31.1103 29.6981 27.0271 26.8511 26.9194ZM30.5146 21.7905C29.5685 21.7905 28.7639 22.4051 28.4774 23.2559H27.1345L25.8695 21.9908C25.8059 21.9273 25.7305 21.8769 25.6476 21.8425C25.5646 21.8082 25.4756 21.7905 25.3858 21.7905H21.6737V23.1586H25.1025L26.3675 24.4236C26.431 24.4871 26.5064 24.5375 26.5894 24.5719C26.6724 24.6063 26.7613 24.624 26.8512 24.624H28.4775C29.2806 26.8991 32.6162 26.3814 32.6641 23.9399C32.6641 22.7547 31.6998 21.7905 30.5146 21.7905ZM24.404 16.364L25.8945 14.8735C27.2856 15.5928 29.0216 14.5227 29.0006 12.9495C29.0006 11.7643 28.0364 10.8 26.8512 10.8C25.2781 10.7792 24.2078 12.515 24.9271 13.9061L23.637 15.1962H21.6736V16.5643H23.9204C24.1018 16.5643 24.2757 16.4923 24.404 16.364ZM25.8694 20.0275L27.1344 18.7624H28.4774C29.2802 21.0373 32.6161 20.5201 32.664 18.0783C32.6159 15.6362 29.2797 15.1198 28.4774 17.3943H26.8511C26.7612 17.3943 26.6723 17.412 26.5893 17.4464C26.5063 17.4808 26.4309 17.5312 26.3674 17.5947L25.1024 18.8597H21.6736V20.2279H25.3857C25.5672 20.2279 25.7412 20.1558 25.8694 20.0275ZM17.6939 9.33467C15.3377 9.2529 14.0782 12.7433 16.0461 12.91C16.4239 12.91 16.7302 13.2163 16.7302 13.594C16.7302 13.9718 16.4239 14.2781 16.0461 14.2781C14.9983 14.2781 14.1098 13.5833 13.8168 12.6303H13.5745C12.1344 12.6303 10.9629 13.8018 10.9629 15.2419C10.9629 16.2276 11.7648 17.0295 12.7505 17.0295C13.6565 17.0626 13.6571 18.3643 12.7505 18.3976H11.9266C8.46586 18.5293 8.46851 23.4903 11.9266 23.6208H12.7505C13.6571 23.6545 13.6566 24.9553 12.7505 24.9889C11.7648 24.9889 10.9628 25.7908 10.9628 26.7765C10.9628 28.2165 12.1344 29.3881 13.5744 29.3881H13.8168C14.1098 28.4351 14.9983 27.7403 16.0461 27.7403C16.4239 27.7403 16.7301 28.0466 16.7301 28.4244C16.7301 28.8021 16.4239 29.1084 16.0461 29.1084C15.5147 29.1084 15.0823 29.5407 15.0823 30.0722C15.2132 33.5315 20.1747 33.5314 20.3055 30.0722V25.1287C20.2359 23.3055 17.6228 23.3072 17.5541 25.1287C17.5541 25.5065 17.2478 25.8128 16.87 25.8128C16.4922 25.8128 16.1859 25.5065 16.1859 25.1287C16.1565 23.0442 18.5308 21.6858 20.3055 22.7562V19.2622C18.5303 20.3326 16.1567 18.9743 16.186 16.8897C16.186 16.5119 16.4922 16.2057 16.87 16.2057C17.2478 16.2057 17.5541 16.5119 17.5541 16.8897C17.6232 18.7125 20.2368 18.7114 20.3055 16.8897V11.9463C20.3055 10.5062 19.1339 9.33467 17.6939 9.33467Z" fill="#4EBBB8"/>
</g>
<defs>
<clipPath id="clip0_1481_5966">
<rect width="23.3333" height="23.3333" fill="white" transform="translate(9.33203 9.33325)"/>
</clipPath>
</defs>
</svg>
