<svg width="42" height="42" viewBox="0 0 42 42" fill="none" xmlns="http://www.w3.org/2000/svg">
<rect width="42" height="42" rx="5" fill="#4EBBB8" fill-opacity="0.1"/>
<g clip-path="url(#clip0_1481_3594)">
<path d="M23.55 23.2125L25.4625 22.7625H25.5L29.8125 21.75L30.1125 21.675C30.15 21.675 30.1875 21.675 30.1875 21.6375L30.525 21.5625L33 21L30.525 20.4L29.85 20.25L25.5 19.2375L23.55 18.7875C23.4 18.75 23.25 18.6375 23.2125 18.45L22.875 16.9125V16.8375L21.75 12.1875L21.675 11.8875C21.675 11.85 21.675 11.8125 21.6375 11.8125L21.5625 11.475L21 9L20.4 11.475L20.325 11.8125C20.325 11.85 20.325 11.85 20.2875 11.8875L20.25 12.1875L19.1625 16.875V16.95L18.825 18.4875C18.7875 18.6375 18.675 18.7875 18.4875 18.825L16.6125 19.275C16.575 19.275 16.575 19.275 16.5375 19.3125L12.1875 20.25L11.8875 20.325C11.85 20.325 11.85 20.325 11.8125 20.3625L11.475 20.4375L9 21L11.475 21.5625L11.775 21.6375C11.8125 21.6375 11.85 21.6375 11.8875 21.675L12.1875 21.75L16.5375 22.7625L18.45 23.2125C18.6 23.25 18.75 23.3625 18.7875 23.55L20.25 29.8125L20.325 30.1125V30.1875L20.4 30.525L21 33L21.5625 30.525L21.6375 30.1875C21.6375 30.15 21.6375 30.1125 21.675 30.1125L21.75 29.8125L23.2125 23.5125C23.25 23.4 23.4 23.25 23.55 23.2125Z" fill="#4EBBB8"/>
<path d="M16.7641 23.6998L15.7891 26.1373L18.2266 24.9373L18.0016 23.9998L16.7641 23.6998ZM24.0016 23.9998L23.7766 24.9373L26.2141 26.1373L25.2391 23.6998L24.0016 23.9998ZM18.0016 17.9998L18.2266 17.0623L15.7891 15.8623L16.7641 18.2998L18.0016 17.9998ZM25.2391 18.2998L26.2141 15.8623L23.7766 17.0623L24.0016 17.9998L25.2391 18.2998Z" fill="#4EBBB8"/>
<path d="M12.2617 19.3498L12.3742 19.3123C13.0492 15.8623 15.8242 13.0873 19.3117 12.3748L19.3492 12.2248L19.5742 11.3248L19.6117 11.1748C15.2992 11.8123 11.8117 15.2998 11.2117 19.5748L11.3617 19.5373L12.2617 19.3498ZM29.7367 22.6498L29.6242 22.6873C28.9492 26.2123 26.2492 28.9498 22.6867 29.6248L22.6492 29.7748L22.4242 30.7123L22.3867 30.8623H22.4242C26.7742 30.2248 30.1117 26.8873 30.7867 22.4998V22.4623L30.6367 22.4998L29.7367 22.6498ZM19.3492 29.7373L19.3117 29.6248C15.7867 28.9498 13.0867 26.2498 12.3742 22.6873L12.2242 22.6498L11.2867 22.4248L11.1367 22.3873V22.4248C11.7742 26.7748 15.1117 30.1498 19.4617 30.7873H19.4992L19.4617 30.6373L19.3492 29.7373ZM22.6492 12.2623L22.6867 12.3748C26.1742 13.0498 28.9117 15.8248 29.6242 19.3123L29.7742 19.3498L30.6742 19.5748L30.8242 19.6123V19.5748C30.1492 15.1873 26.8117 11.8498 22.4617 11.2123H22.4242L22.4617 11.3623L22.6492 12.2623Z" fill="#4EBBB8"/>
</g>
<defs>
<clipPath id="clip0_1481_3594">
<rect width="24" height="24" fill="white" transform="translate(9 9)"/>
</clipPath>
</defs>
</svg>
