<svg width="13" height="12" viewBox="0 0 13 12" fill="none" xmlns="http://www.w3.org/2000/svg">
<path fill-rule="evenodd" clip-rule="evenodd" d="M0.971302 3.56325C0.667969 4.11567 0.667969 4.78359 0.667969 6.11825V7.00609C0.667969 9.28109 0.667969 10.4192 1.35164 11.1262C2.03472 11.8332 3.13489 11.8332 5.33464 11.8332H7.66797C9.86772 11.8332 10.9679 11.8332 11.651 11.1262C12.3346 10.4192 12.3346 9.28167 12.3346 7.00609V6.11884C12.3346 4.78359 12.3346 4.11625 12.0313 3.56325C11.7291 3.00967 11.1756 2.66667 10.069 1.9795L8.9023 1.25559C7.73272 0.529337 7.14764 0.166504 6.5013 0.166504C5.85497 0.166504 5.27047 0.529337 4.1003 1.25559L2.93364 1.9795C1.82705 2.66667 1.27405 3.00967 0.971302 3.56325ZM5.01205 7.98142C4.96586 7.94718 4.91337 7.92237 4.85759 7.90841C4.80181 7.89445 4.74383 7.89162 4.68696 7.90007C4.63008 7.90852 4.57543 7.92809 4.52611 7.95766C4.4768 7.98723 4.43379 8.02623 4.39955 8.07242C4.36531 8.11861 4.3405 8.1711 4.32654 8.22688C4.31258 8.28266 4.30975 8.34064 4.3182 8.39752C4.32665 8.45439 4.34622 8.50905 4.37579 8.55836C4.40536 8.60767 4.44436 8.65068 4.49055 8.68492C5.05814 9.10492 5.75172 9.354 6.5013 9.354C7.25089 9.354 7.94447 9.10492 8.51205 8.68492C8.60527 8.61577 8.66719 8.51241 8.6842 8.3976C8.70121 8.28279 8.67192 8.16593 8.60276 8.07271C8.53361 7.9795 8.43025 7.91758 8.31544 7.90057C8.20063 7.88355 8.08377 7.91285 7.99055 7.982C7.56589 8.297 7.05314 8.479 6.5013 8.479C5.94947 8.479 5.43672 8.29584 5.01205 7.98142Z" fill="#4EBBB8"/>
</svg>
