<svg width="42" height="42" viewBox="0 0 42 42" fill="none" xmlns="http://www.w3.org/2000/svg">
<rect width="42" height="42" rx="5" fill="#4EBBB8" fill-opacity="0.1"/>
<g clip-path="url(#clip0_1481_5974)">
<path d="M32.2969 17.9037H30.7969C30.4086 17.9037 30.0938 18.2185 30.0938 18.6068V28.9193C30.0938 29.3076 30.4086 29.6225 30.7969 29.6225H32.2969C32.6852 29.6225 33 29.3076 33 28.9193V18.6068C33 18.2185 32.6852 17.9037 32.2969 17.9037ZM22.5956 13.4662L23.7675 11.4365C24.0264 10.9881 23.8727 10.4147 23.4243 10.1558L22.6125 9.68704C22.1641 9.42815 21.5907 9.5818 21.3318 10.0302L20.16 12.0599L22.5956 13.4662ZM9.83518 25.4671C10.2369 25.6962 10.7496 25.5466 10.9809 25.1461L16.7268 15.1938C16.4593 15.1301 16.181 15.1261 15.9117 15.182C15.6424 15.2379 15.3887 15.3524 15.1686 15.5173L13.178 17.0103C12.5987 17.4448 12.1174 17.9964 11.7654 18.6292L9.20875 23.2265C8.76986 24.0157 9.04515 25.011 9.82717 25.4625L9.83518 25.4671ZM14.0044 23.0667H17.0528L21.8925 14.684L19.4568 13.2778L13.8008 23.0743C13.8686 23.0695 13.9365 23.067 14.0044 23.0667ZM11.2705 27.4569L10.543 28.7169C10.5088 28.7762 10.4835 28.8401 10.4677 28.9067L9.79689 31.7442C9.6685 32.2872 10.3239 32.6656 10.7301 32.2829L12.852 30.2833C12.9018 30.2364 12.9445 30.1824 12.9787 30.1231L13.5539 29.1269C12.5498 28.9775 11.7043 28.3363 11.2705 27.4569ZM19.5999 29.1605H15.1583L14.2303 30.7678C14.5287 31.0771 14.9471 31.2698 15.4108 31.2698C16.3169 31.2698 17.0514 30.5353 17.0514 29.6292C17.0514 30.5353 17.786 31.2698 18.6921 31.2698C19.5982 31.2698 20.3327 30.5353 20.3327 29.6292V29.5221C20.1625 29.4442 19.7727 29.2462 19.5999 29.1605Z" fill="#4EBBB8"/>
<path d="M22.3971 16.6216L18.676 23.0667H19.7808C20.1691 23.0667 20.4839 23.3815 20.4839 23.7698C20.4839 24.1581 20.1692 24.4729 19.7809 24.4729H14.0039C13.0978 24.4729 12.3633 25.2074 12.3633 26.1135C12.3633 27.0196 13.0978 27.7542 14.0039 27.7542H19.9312L20.7088 28.1427C22.0396 28.8081 23.5303 29.1604 25.0196 29.1604C26.2535 29.1604 27.529 28.9179 28.6871 28.4565V19.3165H27.5789L22.3971 16.6216Z" fill="#4EBBB8"/>
</g>
<defs>
<clipPath id="clip0_1481_5974">
<rect width="24" height="24" fill="white" transform="translate(9 9)"/>
</clipPath>
</defs>
</svg>
