<svg width="20" height="20" viewBox="0 0 20 20" fill="none" xmlns="http://www.w3.org/2000/svg">
<path d="M1.875 6.71914H0.625C0.50068 6.71914 0.381451 6.66975 0.293544 6.58185C0.205636 6.49394 0.15625 6.37471 0.15625 6.25039C0.15625 6.12607 0.205636 6.00684 0.293544 5.91893C0.381451 5.83103 0.50068 5.78164 0.625 5.78164H1.875C1.99932 5.78164 2.11855 5.83103 2.20646 5.91893C2.29436 6.00684 2.34375 6.12607 2.34375 6.25039C2.34375 6.37471 2.29436 6.49394 2.20646 6.58185C2.11855 6.66975 1.99932 6.71914 1.875 6.71914ZM3.08063 2.46039C2.99385 2.46021 2.90883 2.43598 2.835 2.39039L1.77 1.73477C1.66416 1.66954 1.58857 1.56494 1.55985 1.44398C1.53114 1.32302 1.55165 1.1956 1.61687 1.08977C1.6821 0.983928 1.7867 0.908336 1.90766 0.879619C2.02862 0.850903 2.15604 0.871414 2.26187 0.936641L3.32687 1.59227C3.41362 1.64587 3.48052 1.7263 3.51742 1.82136C3.55433 1.91642 3.55923 2.02092 3.53138 2.11902C3.50354 2.21711 3.44446 2.30346 3.36312 2.36495C3.28177 2.42644 3.1826 2.45973 3.08063 2.45977V2.46039ZM2.01688 11.6335C1.91485 11.6336 1.81558 11.6004 1.73413 11.539C1.65268 11.4775 1.5935 11.3912 1.56558 11.2931C1.53765 11.1949 1.5425 11.0904 1.5794 10.9953C1.61629 10.9001 1.68321 10.8197 1.77 10.766L2.835 10.1098C2.94071 10.0502 3.06539 10.0338 3.18289 10.0642C3.30039 10.0945 3.40157 10.1692 3.46521 10.2725C3.52884 10.3758 3.54998 10.4998 3.52419 10.6184C3.49839 10.737 3.42768 10.8409 3.32687 10.9085L2.2625 11.5641C2.18879 11.6094 2.10337 11.6334 2.01688 11.6335ZM19.375 6.71914H18.125C18.0007 6.71914 17.8815 6.66975 17.7935 6.58185C17.7056 6.49394 17.6562 6.37471 17.6562 6.25039C17.6562 6.12607 17.7056 6.00684 17.7935 5.91893C17.8815 5.83103 18.0007 5.78164 18.125 5.78164H19.375C19.4993 5.78164 19.6185 5.83103 19.7065 5.91893C19.7944 6.00684 19.8438 6.12607 19.8438 6.25039C19.8438 6.37471 19.7944 6.49394 19.7065 6.58185C19.6185 6.66975 19.4993 6.71914 19.375 6.71914ZM16.9194 2.46039C16.817 2.4608 16.7174 2.42769 16.6356 2.36614C16.5538 2.30458 16.4944 2.21795 16.4665 2.11948C16.4386 2.02101 16.4437 1.9161 16.481 1.82079C16.5183 1.72548 16.5858 1.645 16.6731 1.59164L17.7381 0.936641C17.844 0.871414 17.9714 0.850903 18.0923 0.879619C18.2133 0.908336 18.3179 0.983928 18.3831 1.08977C18.4484 1.1956 18.4689 1.32302 18.4401 1.44398C18.4114 1.56494 18.3358 1.66954 18.23 1.73477L17.165 2.39102C17.091 2.43617 17.006 2.45996 16.9194 2.45977V2.46039ZM17.9831 11.6335C17.8966 11.6334 17.8118 11.6094 17.7381 11.5641L16.6731 10.9085C16.5673 10.8433 16.4917 10.7387 16.463 10.6177C16.4343 10.4968 16.4548 10.3694 16.52 10.2635C16.5852 10.1577 16.6898 10.0821 16.8108 10.0534C16.9317 10.0247 17.0592 10.0452 17.165 10.1104L18.23 10.766C18.3168 10.8197 18.3837 10.9001 18.4206 10.9953C18.4575 11.0904 18.4624 11.1949 18.4344 11.2931C18.4065 11.3912 18.3473 11.4775 18.2659 11.539C18.1844 11.6004 18.0851 11.6336 17.9831 11.6335ZM5.7875 5.78164H4.4C4.61875 3.05039 6.8 0.875391 9.53125 0.650391V2.50039C9.53125 2.75664 9.74375 2.96914 10 2.96914H10.3125C10.5688 2.96914 10.7812 3.18164 10.7812 3.43789C10.7812 3.69414 10.5688 3.90664 10.3125 3.90664H10C9.74375 3.90664 9.53125 4.11914 9.53125 4.37539V5.78164H8.5875C8.50625 5.08164 7.9125 4.53164 7.1875 4.53164C6.4625 4.53164 5.86875 5.08164 5.7875 5.78164Z" fill="#121212" fill-opacity="0.6"/>
<path d="M9.52969 11.0875V12.1875H7.48594C7.42344 11.6375 7.14219 11.125 6.69219 10.8C6.03706 10.3265 5.49264 9.71625 5.09659 9.01157C4.70055 8.30688 4.46233 7.52457 4.39844 6.71875H6.24844C6.50469 6.71875 6.71719 6.50625 6.71719 6.25V5.9375C6.71719 5.68125 6.92969 5.46875 7.18594 5.46875C7.44219 5.46875 7.65469 5.68125 7.65469 5.9375V6.25C7.65469 6.50625 7.86719 6.71875 8.12344 6.71875H9.52969V8.2875C8.82969 8.36875 8.27969 8.9625 8.27969 9.6875C8.27969 10.4125 8.82969 11.0062 9.52969 11.0875Z" fill="#121212" fill-opacity="0.6"/>
<path d="M15.6 6.71875C15.5361 7.51987 15.2996 8.2977 14.907 8.9989C14.5143 9.70011 13.9746 10.3081 13.325 10.7812C12.8687 11.1188 12.5813 11.6312 12.5125 12.1875H10.4688V10.625C10.4688 10.3688 10.2563 10.1562 10 10.1562H9.6875C9.43125 10.1562 9.21875 9.94375 9.21875 9.6875C9.21875 9.43125 9.43125 9.21875 9.6875 9.21875H10C10.2563 9.21875 10.4688 9.00625 10.4688 8.75V6.71875H11.4125C11.4938 7.41875 12.0875 7.96875 12.8125 7.96875C13.5375 7.96875 14.1312 7.41875 14.2125 6.71875H15.6Z" fill="#121212" fill-opacity="0.6"/>
<path d="M11.875 5.78203H10.4688V4.83828C11.1687 4.75703 11.7188 4.16328 11.7188 3.43828C11.7188 2.71328 11.1687 2.11953 10.4688 2.03828V0.644531C13.1688 0.869531 15.375 3.09453 15.6 5.78203H13.75C13.4938 5.78203 13.2812 5.99453 13.2812 6.25078V6.56328C13.2812 6.81953 13.0687 7.03203 12.8125 7.03203C12.5563 7.03203 12.3438 6.81953 12.3438 6.56328V6.25078C12.3438 5.99453 12.1313 5.78203 11.875 5.78203Z" fill="#121212" fill-opacity="0.6"/>
<path d="M13.125 13.125H6.875C6.52982 13.125 6.25 13.4048 6.25 13.75V15C6.25 15.3452 6.52982 15.625 6.875 15.625H13.125C13.4702 15.625 13.75 15.3452 13.75 15V13.75C13.75 13.4048 13.4702 13.125 13.125 13.125Z" fill="#121212" fill-opacity="0.6"/>
<path d="M12.5 16.5625V16.875C12.5 18.2563 11.3812 19.375 10 19.375C8.61875 19.375 7.5 18.2563 7.5 16.875V16.5625H12.5Z" fill="#121212" fill-opacity="0.6"/>
</svg>
