<svg width="42" height="42" viewBox="0 0 42 42" fill="none" xmlns="http://www.w3.org/2000/svg">
<rect width="42" height="42" rx="5" fill="#4EBBB8" fill-opacity="0.1"/>
<path d="M22.1982 13.3885C23.41 13.3885 24.3924 12.4061 24.3924 11.1943C24.3924 9.98241 23.41 9 22.1982 9C20.9863 9 20.0039 9.98241 20.0039 11.1943C20.0039 12.4061 20.9863 13.3885 22.1982 13.3885Z" fill="#4EBBB8"/>
<path d="M19.1639 15.0024C19.2453 14.4455 19.6773 14.1106 19.9927 14.1985L22.2823 14.8368C22.5968 14.9265 22.705 15.6573 22.6162 15.9746L20.73 23.7193C20.6375 24.0375 20.4479 24.1948 20.1324 24.1041L18.5857 23.7693C17.3396 22.7434 17.347 21.8507 17.6024 20.6185L19.1639 15.0024ZM17.2 23.9016L16.8077 26.6444C16.8077 26.6444 15.7985 29.0412 15.1047 30.4492C14.5802 31.5158 14.3332 32.2845 14.6939 32.477C15.2471 32.7711 15.9909 32.1115 16.7698 30.8969C18.076 28.8599 18.7485 27.8414 19.0001 27.3465L19.3951 26.0533C19.3951 26.0542 17.4553 24.7702 17.2 23.9016Z" fill="#4EBBB8"/>
<path d="M24.1324 25.0374L21.0769 22.0031C20.5949 21.5175 19.8752 21.746 19.3877 22.2289C18.9011 22.708 17.9483 23.1613 18.4284 23.6498L22.3146 26.9217L21.8844 31.1141C21.853 32.1484 21.9141 32.7478 22.5709 32.8163C23.1842 32.8801 23.4543 31.6044 23.5181 31.2816C23.5181 31.2816 24.3035 27.2659 24.3988 26.6997C24.4941 26.1326 24.5514 25.4657 24.1324 25.0374ZM27.8271 16.0411L25.5237 17.1243L22.6217 15.0059C22.5117 14.9265 22.3872 14.8696 22.2552 14.8383C22.1231 14.8071 21.9863 14.8021 21.8524 14.8238C21.7184 14.8454 21.5901 14.8932 21.4747 14.9645C21.3592 15.0357 21.2589 15.129 21.1795 15.239C21.1002 15.349 21.0432 15.4736 21.012 15.6056C20.9807 15.7376 20.9758 15.8745 20.9974 16.0084C21.0191 16.1423 21.0669 16.2707 21.1381 16.3861C21.2094 16.5015 21.3027 16.6018 21.4127 16.6812L24.5422 18.9476C24.8363 19.1595 25.2887 19.2705 25.6199 19.1271C25.6199 19.1271 27.7688 17.8218 28.3451 17.4462C28.9492 17.0503 29.581 16.5304 29.3479 16.0938C29.0167 15.4666 28.4136 15.758 27.8271 16.0411Z" fill="#4EBBB8"/>
<path d="M27.75 14.8955V32.4718" stroke="#4EBBB8" stroke-width="1.05624" stroke-miterlimit="10" stroke-linecap="round" stroke-linejoin="round"/>
<path d="M18.0842 14.9118C18.0842 14.9118 16.7114 19.1726 16.5032 19.8498C16.2951 20.5269 15.5689 20.9969 14.543 20.6842C13.5171 20.3706 12.4524 19.9404 12.6189 18.7416C12.8011 17.4354 14.0351 15.7008 15.1055 14.5852C16.1758 13.4705 18.6198 13.0829 18.0842 14.9118Z" fill="#4EBBB8"/>
</svg>
