<svg width="32" height="32" viewBox="0 0 32 32" fill="none" xmlns="http://www.w3.org/2000/svg">
<path d="M23.9987 2.6665H7.9987C6.52803 2.6665 5.33203 3.8625 5.33203 5.33317V27.9998C5.33203 28.3535 5.47251 28.6926 5.72256 28.9426C5.9726 29.1927 6.31174 29.3332 6.66536 29.3332H25.332C25.6857 29.3332 26.0248 29.1927 26.2748 28.9426C26.5249 28.6926 26.6654 28.3535 26.6654 27.9998V5.33317C26.6654 3.8625 25.4694 2.6665 23.9987 2.6665ZM23.9987 26.6665H7.9987V5.33317H23.9987V26.6665Z" fill="black"/>
<path d="M10.668 8H14.668V10.6667H10.668V8ZM17.3346 8H21.3346V10.6667H17.3346V8ZM10.668 13.3333H14.668V16H10.668V13.3333ZM17.3346 13.3747H21.3346V16H17.3346V13.3747ZM10.668 18.6667H14.668V21.3333H10.668V18.6667ZM17.3346 18.6667H21.3346V21.3333H17.3346V18.6667Z" fill="black"/>
</svg>
