<svg width="42" height="42" viewBox="0 0 42 42" fill="none" xmlns="http://www.w3.org/2000/svg">
<rect width="42" height="42" rx="5" fill="#4EBBB8" fill-opacity="0.1"/>
<g clip-path="url(#clip0_1481_3605)">
<path d="M31.0674 16.4088L23.3334 9.31031C23.0793 9.10711 22.7758 9 22.4559 9C22.1359 9 21.8318 9.10711 21.5778 9.31031L13.8445 16.3876C13.2385 16.8717 13.138 17.7557 13.6248 18.3636C14.1073 18.9678 14.9924 19.0707 15.6008 18.5834L22.4559 12.256L29.3125 18.6053C29.8784 19.061 30.827 18.9627 31.2871 18.3841C31.7732 17.7788 31.6741 16.8934 31.0674 16.4088ZM29.4865 9.00206H26.6742C26.2856 9.00206 25.9712 9.3165 25.9712 9.70514V9.81605L30.1895 13.7068V9.70514C30.1896 9.3165 29.8751 9.00206 29.4865 9.00206ZM11.2068 20.298H9.70698C9.31839 20.298 9.00391 20.6124 9.00391 21.001V32.2969C9.00391 32.6855 9.31834 33 9.70698 33H11.2068C12.3699 33 13.316 32.0539 13.316 30.8908V22.4071C13.316 21.2441 12.37 20.298 11.2068 20.298ZM32.4254 21.9713C31.8488 21.5494 31.0473 21.6338 30.5693 22.1541L26.7727 26.8786C26.5055 27.1598 25.9993 27.3286 25.7322 27.3286H19.6436C19.2498 27.3286 18.9405 27.0193 18.9405 26.6255C18.9405 26.2317 19.2498 25.9224 19.6436 25.9224H25.2681C26.0415 25.9224 26.6742 25.2897 26.6742 24.5163C26.6742 23.7429 26.0415 23.1102 25.2681 23.1102H21.5841C21.2337 23.1102 21.0589 22.888 20.7826 22.6462C20.3607 22.2666 19.8827 21.9853 19.3905 21.7884C17.8668 21.1662 16.1061 21.3545 14.7222 22.317V31.5938H25.2682C26.59 31.5938 27.8555 30.9611 28.6429 29.9065L32.7207 23.9539C33.1847 23.3352 33.0581 22.4353 32.4254 21.9713Z" fill="#4EBBB8"/>
<path d="M22.4551 14.1709L16.1289 20.0105V20.2013C16.593 20.0944 17.0661 20.022 17.5501 20.022C18.3693 20.022 19.167 20.1785 19.9223 20.4868C20.0712 20.5464 20.2047 20.6306 20.3472 20.7008V19.5949C20.3472 19.2064 20.6617 18.8919 21.0503 18.8919H23.8626C24.2512 18.8919 24.5657 19.2063 24.5657 19.5949V21.7041H25.2688C26.3968 21.7041 27.3718 22.3715 27.8194 23.332L28.7841 22.1316V20.0272L22.4551 14.1709Z" fill="#4EBBB8"/>
<path d="M21.7539 20.2979V21.6276L21.8384 21.704H23.1601V20.2979H21.7539Z" fill="#4EBBB8"/>
</g>
<defs>
<clipPath id="clip0_1481_3605">
<rect width="24" height="24" fill="white" transform="translate(9 9)"/>
</clipPath>
</defs>
</svg>
