<svg width="24" height="24" viewBox="0 0 24 24" fill="none" xmlns="http://www.w3.org/2000/svg">
<g clip-path="url(#clip0_1481_3640)">
<path d="M17.6919 12.0001C17.6891 11.1036 17.593 10.2099 17.4052 9.3334H19.8052C19.6816 8.96777 19.5323 8.61133 19.3585 8.26673H17.1252C16.7054 6.8641 16.0542 5.54146 15.1985 4.3534C14.6519 4.12353 14.0819 3.95365 13.4985 3.84673C14.6708 5.10622 15.5556 6.60519 16.0919 8.24007H12.4985V3.7334H11.4985V8.24673H7.90521C8.44259 6.6089 9.32976 5.10753 10.5052 3.84673C9.92439 3.95187 9.35664 4.11951 8.81187 4.34673C7.95284 5.52981 7.29718 6.8479 6.87188 8.24673H4.62521C4.44825 8.59762 4.29675 8.96078 4.17188 9.3334H6.59187C6.40407 10.2099 6.30799 11.1036 6.30521 12.0001C6.30705 12.9806 6.41886 13.9578 6.63854 14.9134H4.27854C4.41646 15.2871 4.58134 15.6503 4.77187 16.0001H6.92521C7.33335 17.2773 7.93841 18.4829 8.71854 19.5734C9.27719 19.813 9.86079 19.9897 10.4585 20.1001C9.37049 18.9132 8.53371 17.5186 7.99854 16.0001H11.5052V20.2267H12.5052V16.0001H15.9985C15.4616 17.5192 14.6225 18.9139 13.5319 20.1001C14.1324 19.9858 14.7183 19.8047 15.2785 19.5601C16.0574 18.4737 16.6625 17.2726 17.0719 16.0001H19.2052C19.3949 15.6567 19.5597 15.3003 19.6985 14.9334H17.3319C17.562 13.9723 17.6828 12.9883 17.6919 12.0001ZM11.4985 14.9134H7.67187C7.20252 13.0786 7.18194 11.1578 7.61187 9.3134H11.4985V14.9134ZM16.3252 14.9134H12.4985V9.3334H16.3852C16.5767 10.2092 16.6706 11.1036 16.6652 12.0001C16.6706 12.9814 16.5565 13.9597 16.3252 14.9134Z" fill="#3176BC"/>
<path d="M11.9987 1.33301C9.88904 1.33301 7.82674 1.9586 6.07262 3.13067C4.3185 4.30273 2.95132 5.96864 2.14399 7.91772C1.33665 9.8668 1.12542 12.0115 1.53699 14.0806C1.94857 16.1498 2.96447 18.0504 4.45623 19.5421C5.94799 21.0339 7.84861 22.0498 9.91774 22.4614C11.9869 22.873 14.1316 22.6617 16.0807 21.8544C18.0297 21.0471 19.6956 19.6799 20.8677 17.9258C22.0398 16.1716 22.6654 14.1093 22.6654 11.9997C22.6654 9.1707 21.5416 6.45759 19.5412 4.4572C17.5408 2.45681 14.8277 1.33301 11.9987 1.33301ZM11.9987 21.333C10.1527 21.333 8.34824 20.7856 6.81338 19.7601C5.27852 18.7345 4.08224 17.2768 3.37583 15.5714C2.66941 13.8659 2.48458 11.9893 2.84471 10.1788C3.20484 8.36834 4.09375 6.7053 5.39904 5.40001C6.70433 4.09472 8.36737 3.20581 10.1779 2.84568C11.9883 2.48555 13.865 2.67038 15.5704 3.3768C17.2759 4.08322 18.7335 5.27949 19.7591 6.81435C20.7846 8.34921 21.332 10.1537 21.332 11.9997C21.332 14.475 20.3487 16.849 18.5984 18.5993C16.848 20.3497 14.4741 21.333 11.9987 21.333Z" fill="#3176BC"/>
</g>
<defs>
<clipPath id="clip0_1481_3640">
<rect width="24" height="24" fill="white"/>
</clipPath>
</defs>
</svg>
