<svg width="68" height="48" viewBox="0 0 68 48" fill="none" xmlns="http://www.w3.org/2000/svg">
<path d="M27.7031 0H2.51439C1.43198 0 0.554688 0.877295 0.554688 1.95971V27.1485C0.554688 28.231 1.43198 29.1082 2.51439 29.1082H13.1488V46.0403C13.1488 47.1223 14.0261 48 15.1085 48H21.4062C21.8175 48 22.2183 47.8706 22.5519 47.6301C22.8855 47.3895 23.1349 47.0501 23.2648 46.66L29.562 27.7681C29.6288 27.5686 29.663 27.3593 29.663 27.1486V1.95971C29.663 0.877295 28.7856 0 27.7031 0ZM65.4863 0H40.2975C39.215 0 38.3378 0.877295 38.3378 1.95971V27.1485C38.3378 28.231 39.215 29.1082 40.2975 29.1082H50.9325V46.0403C50.9325 47.1223 51.8096 48 52.8922 48H59.1891C59.6004 48 60.0013 47.8705 60.3349 47.63C60.6686 47.3895 60.9181 47.0501 61.0482 46.66L67.3454 27.7681C67.4116 27.5686 67.4459 27.3593 67.4459 27.1486V1.95971C67.4459 0.877295 66.5686 0 65.4862 0H65.4863Z" fill="#DADADA"/>
</svg>
