<svg width="42" height="42" viewBox="0 0 42 42" fill="none" xmlns="http://www.w3.org/2000/svg">
<rect width="42" height="42" rx="5" fill="#4EBBB8" fill-opacity="0.1"/>
<g clip-path="url(#clip0_1481_3585)">
<path d="M26.8511 26.9192C26.5191 26.9189 26.1915 26.9961 25.8945 27.1446L24.404 25.6541C24.3405 25.5906 24.2651 25.5402 24.1821 25.5058C24.0991 25.4714 24.0102 25.4537 23.9204 25.4537H21.6736V26.8218H23.637L24.9271 28.1119C24.208 29.5031 25.278 31.239 26.8512 31.218C29.6986 31.1101 29.6981 27.0268 26.8511 26.9192ZM30.5146 21.7903C29.5685 21.7903 28.7639 22.4049 28.4774 23.2556H27.1345L25.8695 21.9906C25.8059 21.9271 25.7305 21.8767 25.6476 21.8423C25.5646 21.8079 25.4756 21.7902 25.3858 21.7902H21.6737V23.1583H25.1025L26.3675 24.4234C26.431 24.4869 26.5064 24.5373 26.5894 24.5717C26.6724 24.606 26.7613 24.6237 26.8512 24.6237H28.4775C29.2806 26.8989 32.6162 26.3812 32.6641 23.9396C32.6641 22.7545 31.6998 21.7903 30.5146 21.7903ZM24.404 16.3638L25.8945 14.8733C27.2856 15.5925 29.0216 14.5224 29.0006 12.9492C29.0006 11.764 28.0364 10.7998 26.8512 10.7998C25.2781 10.7789 24.2078 12.5148 24.9271 13.9059L23.637 15.196H21.6736V16.5641H23.9204C24.1018 16.5641 24.2757 16.492 24.404 16.3638ZM25.8694 20.0272L27.1344 18.7622H28.4774C29.2802 21.037 32.6161 20.5199 32.664 18.0781C32.6159 15.636 29.2797 15.1196 28.4774 17.3941H26.8511C26.7612 17.3941 26.6723 17.4118 26.5893 17.4462C26.5063 17.4805 26.4309 17.5309 26.3674 17.5945L25.1024 18.8595H21.6736V20.2276H25.3857C25.5672 20.2276 25.7412 20.1555 25.8694 20.0272ZM17.6939 9.33442C15.3377 9.25265 14.0782 12.7431 16.0461 12.9098C16.4239 12.9097 16.7302 13.216 16.7302 13.5938C16.7302 13.9716 16.4239 14.2778 16.0461 14.2778C14.9983 14.2778 14.1098 13.583 13.8168 12.6301H13.5745C12.1344 12.6301 10.9629 13.8016 10.9629 15.2416C10.9629 16.2274 11.7648 17.0293 12.7505 17.0293C13.6565 17.0624 13.6571 18.364 12.7505 18.3974H11.9266C8.46586 18.5291 8.46851 23.4901 11.9266 23.6205H12.7505C13.6571 23.6543 13.6566 24.9551 12.7505 24.9886C11.7648 24.9886 10.9628 25.7906 10.9628 26.7763C10.9628 28.2163 12.1344 29.3879 13.5744 29.3879H13.8168C14.1098 28.4348 14.9983 27.7401 16.0461 27.7401C16.4239 27.7401 16.7301 28.0463 16.7301 28.4241C16.7301 28.8019 16.4239 29.1082 16.0461 29.1082C15.5147 29.1082 15.0823 29.5405 15.0823 30.0719C15.2132 33.5313 20.1747 33.5312 20.3055 30.0719V25.1285C20.2359 23.3053 17.6228 23.307 17.5541 25.1285C17.5541 25.5063 17.2478 25.8125 16.87 25.8125C16.4922 25.8125 16.1859 25.5063 16.1859 25.1285C16.1565 23.0439 18.5308 21.6855 20.3055 22.756V19.262C18.5303 20.3323 16.1567 18.974 16.186 16.8894C16.186 16.5117 16.4922 16.2054 16.87 16.2054C17.2478 16.2054 17.5541 16.5117 17.5541 16.8895C17.6232 18.7123 20.2368 18.7112 20.3055 16.8895V11.946C20.3055 10.5059 19.1339 9.33442 17.6939 9.33442Z" fill="#4EBBB8"/>
</g>
<defs>
<clipPath id="clip0_1481_3585">
<rect width="23.3333" height="23.3333" fill="white" transform="translate(9.33203 9.33301)"/>
</clipPath>
</defs>
</svg>
