<svg width="104" height="48" viewBox="0 0 104 48" fill="none" xmlns="http://www.w3.org/2000/svg">
<path d="M53.445 12.4709C54.6978 12.3152 55.7993 12.8341 56.5088 13.7602L55.2149 15.2222C54.8651 14.5617 54.2063 14.1664 53.4546 14.2598C52.3329 14.3996 51.4314 15.5857 51.4384 16.8976C51.4455 18.2095 52.3583 19.1699 53.4799 19.03C54.2317 18.9363 54.8852 18.3776 55.2276 17.6311L56.5353 18.769C55.8363 19.8702 54.7422 20.6628 53.4894 20.8189C51.3772 21.082 49.6608 19.4221 49.6485 17.1203C49.6362 14.8188 51.3328 12.734 53.445 12.4709Z" fill="white"/>
<path d="M57.3126 16.1663C57.3002 13.8645 58.9968 11.7797 61.1091 11.5169C63.2214 11.2538 64.9377 12.9141 64.95 15.2155C64.9624 17.5174 63.2658 19.6022 61.1535 19.865C59.0412 20.1281 57.3249 18.4682 57.3126 16.1663ZM63.1601 15.4385C63.1531 14.1266 62.2403 13.1663 61.119 13.3062C59.9973 13.4457 59.0958 14.6322 59.1029 15.9441C59.1099 17.256 60.0227 18.2163 61.1443 18.0768C62.2657 17.9366 63.1668 16.7504 63.1601 15.4385Z" fill="white"/>
<path d="M67.9814 10.6612L70.5787 16.3052L73.1127 10.0226L74.9026 9.79956L74.947 18.1479L73.1571 18.3709L73.1366 14.5427L71.5102 18.5763L69.6723 18.8049L68.0053 15.1814L68.0254 19.0096L66.2358 19.2326L66.1914 10.8842L67.9814 10.6612Z" fill="white"/>
<path d="M78.7239 9.32397L78.7683 17.6724L76.978 17.8954L76.9336 9.54697L78.7239 9.32397Z" fill="white"/>
<path d="M82.5399 8.8484L85.3099 13.2773L85.2846 8.50669L87.0745 8.28369L87.1189 16.6321L85.329 16.8551L82.559 12.4265L82.5843 17.1968L80.7944 17.4198L80.75 9.07139L82.5399 8.8484Z" fill="white"/>
<path d="M95.3571 11.3108L95.38 15.6041L93.5904 15.8267L93.5894 15.5882C93.1962 15.7922 92.7671 15.9296 92.3254 15.9845C90.2131 16.2477 88.4968 14.5877 88.4844 12.2859C88.4721 9.98445 90.1687 7.89929 92.281 7.63649C93.534 7.48042 94.6353 7.99969 95.3448 8.92584L94.0512 10.3875C93.7014 9.72693 93.1617 9.31687 92.2905 9.42538C91.4073 9.53529 90.2663 10.5125 90.2744 12.0629C90.2825 13.6133 91.4327 14.3055 92.3159 14.1956C92.8527 14.1287 93.2579 13.8994 93.5784 13.5492L93.5774 13.3343L92.1454 13.5126L92.1358 11.7117L95.3571 11.3108Z" fill="white"/>
<path d="M55.4388 26.3872C55.437 26.062 54.9474 25.7707 54.0258 25.8855C53.3346 25.9715 52.3602 26.3639 52.3634 26.96C52.3665 27.5018 53.1937 27.5071 54.3605 27.5789C56.2459 27.6966 57.6067 28.5706 57.6148 30.0745C57.6247 31.9437 56.3692 33.0488 53.9842 33.3458C51.8561 33.6107 50.305 32.6652 50.2969 31.094L52.3299 30.8407C52.3317 31.1655 53.0517 31.4287 53.9733 31.3138C54.5426 31.243 55.5998 31.1113 55.5959 30.4205C55.5931 29.9192 54.9544 29.687 53.7609 29.6053C51.7391 29.4774 50.3406 29.1498 50.3303 27.2263C50.3212 25.5336 51.8733 24.1202 54.0149 23.8539C56.0613 23.5992 57.4634 24.5902 57.4718 26.1339L55.4388 26.3872Z" fill="white"/>
<path d="M59.0391 27.9715C59.025 25.3572 60.9524 22.9899 63.3511 22.6912C65.7501 22.3924 67.6996 24.2775 67.7134 26.8914C67.7271 29.5057 65.8005 31.8737 63.4015 32.1721C61.0028 32.4712 59.0529 30.5858 59.0391 27.9715ZM65.6804 27.1451C65.6726 25.6553 64.6358 24.5642 63.362 24.7228C62.0881 24.8813 61.0644 26.2288 61.0722 27.7186C61.0803 29.2084 62.1167 30.2994 63.3905 30.1409C64.6647 29.9823 65.6885 28.6349 65.6804 27.1451Z" fill="white"/>
<path d="M68.6055 26.7805C68.5918 24.1662 70.5184 21.7989 72.9175 21.5001C75.3165 21.2014 77.2661 23.0865 77.2798 25.7007C77.2935 28.315 75.3669 30.6827 72.9678 30.9814C70.5692 31.2802 68.6196 29.3948 68.6055 26.7805ZM75.2468 25.9537C75.239 24.4639 74.2022 23.3729 72.9284 23.5314C71.6542 23.6899 70.6305 25.0374 70.6386 26.5272C70.6467 28.017 71.6831 29.108 72.9573 28.9495C74.2311 28.791 75.2549 27.4435 75.2468 25.9537Z" fill="white"/>
<path d="M80.7244 20.5286L83.8707 25.5581L83.8418 20.1404L85.8748 19.8875L85.9252 29.3688L83.8921 29.6217L80.7459 24.5922L80.7748 30.0103L78.7418 30.2632L78.6914 20.7819L80.7244 20.5286Z" fill="white"/>
<path d="M21.4627 16.5795L13.7621 17.4563L13.7533 19.1236L13.6885 31.3147L13.6797 32.9852L14.7788 32.8602L15.0825 34.6709C15.1945 35.3381 15.781 35.769 16.4708 35.6908L17.1162 35.6171L19.1841 46.602C19.3715 47.5954 20.2008 48.1954 21.0364 47.9421L24.9492 46.7552C25.7852 46.5016 26.3111 45.4906 26.1244 44.4968C25.8486 43.0316 24.1301 43.4716 24.1315 43.4575C24.2598 42.3584 23.4485 41.2625 23.2695 41.4714C24.2904 40.2792 23.0317 37.2863 22.5766 37.7897C23.2811 37.0097 22.9718 35.4646 22.5132 34.6431C22.535 34.6212 22.56 34.6033 22.5808 34.58L24.8671 32.0457C25.9821 32.1348 27.0773 32.3289 28.1462 32.6284C33.0823 34.0136 38.902 35.6446 42.2114 36.5746L42.3667 7.3606C39.0436 9.04239 33.1993 12.0051 28.2427 14.5169C26.0881 15.6089 23.7729 16.3167 21.4627 16.5795Z" fill="white"/>
<path d="M8.44472 22.5738L8.4102 29.0731C8.40174 30.6457 9.66925 31.7726 11.2408 31.5936L12.763 31.4203L12.8278 19.2292L11.3056 19.4026C9.73372 19.5815 8.45282 21.0012 8.44472 22.5738Z" fill="white"/>
<path d="M45.1733 5.77987C44.9975 5.62698 44.7598 5.5463 44.4952 5.57625C43.9569 5.63754 43.5321 6.1244 43.5292 6.64683C43.5095 10.3616 43.3866 33.4721 43.3672 37.1164C43.3707 37.1161 43.3707 37.1161 43.3735 37.1157C43.3918 37.3422 43.4922 37.5332 43.6451 37.6695C43.8174 37.8231 44.0552 37.9038 44.3233 37.8735C44.8524 37.8132 45.2861 37.3355 45.2889 36.8061L45.4502 6.42842C45.4523 6.16315 45.3456 5.93346 45.1733 5.77987Z" fill="white"/>
<path d="M1.15408 13.5097L35.2448 9.44685L38.1345 7.94824L0 12.4934V45.9253L16.298 43.9828L16.1342 42.8481L1.15408 44.6338V13.5097Z" fill="white"/>
<path d="M47.5384 6.82721V7.98129L102.066 1.48238V32.6062L26.5195 41.6101L26.7922 42.7318L103.22 33.6225V0.190918L47.5384 6.82721Z" fill="white"/>
<path d="M5.75781 6.55069V7.54905L56.8194 0.998367V0L5.75781 6.55069Z" fill="white"/>
<path d="M36.1836 46.8598V47.8581L86.9788 41.3416V40.3429L36.1836 46.8598Z" fill="white"/>
</svg>
