<svg width="42" height="42" viewBox="0 0 42 42" fill="none" xmlns="http://www.w3.org/2000/svg">
<rect width="42" height="42" rx="5" fill="#4EBBB8" fill-opacity="0.1"/>
<g clip-path="url(#clip0_1481_5983)">
<path d="M12 22.5C12 21.2595 13.0095 20.25 14.25 20.25C15.4905 20.25 16.5 21.2595 16.5 22.5H18V20.0475C18 19.4872 18.645 19.119 19.1287 19.4002C19.6163 19.6837 20.25 19.3148 20.25 18.75C20.25 18.2055 19.608 17.8178 19.1287 18.0998C18.6405 18.387 18 18.0173 18 17.4525V13.5H11.25C10.0095 13.5 9 14.5095 9 15.75V22.5H12Z" fill="#4EBBB8"/>
<path d="M18 30C16.7595 30 15.75 28.9905 15.75 27.75C15.75 26.5095 16.7595 25.5 18 25.5V24H15.5475C14.988 24 14.6093 23.3685 14.9002 22.8705C15.1815 22.3905 14.8177 21.75 14.25 21.75C13.707 21.75 13.32 22.3935 13.5998 22.8705C13.8878 23.361 13.5202 24 12.9525 24H9V30.75C9 31.9905 10.0095 33 11.25 33H18V30Z" fill="#4EBBB8"/>
<path d="M25.5 24C25.5 25.2405 24.4905 26.25 23.25 26.25C22.0095 26.25 21 25.2405 21 24H19.5V26.4525C19.5 27.0142 18.8557 27.3825 18.3712 27.0998C17.8867 26.817 17.25 27.1845 17.25 27.75C17.25 28.2967 17.8912 28.683 18.3712 28.4002C18.8572 28.1145 19.5 28.4888 19.5 29.0475V33H26.25C27.4905 33 28.5 31.9905 28.5 30.75V24H25.5ZM30.75 9H23.25C23.0511 9 22.8603 9.07902 22.7197 9.21967C22.579 9.36032 22.5 9.55109 22.5 9.75V12.9525C22.5 13.521 23.139 13.8855 23.6295 13.5998C24.12 13.3125 24.75 13.6912 24.75 14.25C24.75 14.7975 24.1095 15.1838 23.6295 14.9002C23.142 14.613 22.5 14.9887 22.5 15.5475V18.75C22.5 18.9489 22.579 19.1397 22.7197 19.2803C22.8603 19.421 23.0511 19.5 23.25 19.5H25.5C25.5 20.7405 26.5095 21.75 27.75 21.75C28.9905 21.75 30 20.7405 30 19.5H32.25C32.4489 19.5 32.6397 19.421 32.7803 19.2803C32.921 19.1397 33 18.9489 33 18.75V11.25C33 10.0095 31.9905 9 30.75 9Z" fill="#4EBBB8"/>
</g>
<defs>
<clipPath id="clip0_1481_5983">
<rect width="24" height="24" fill="white" transform="translate(9 9)"/>
</clipPath>
</defs>
</svg>
