<svg width="42" height="42" viewBox="0 0 42 42" fill="none" xmlns="http://www.w3.org/2000/svg">
<rect width="42" height="42" rx="5" fill="#4EBBB8" fill-opacity="0.1"/>
<g clip-path="url(#clip0_1481_5993)">
<path d="M30.4156 18.7905H21.3781C19.9522 18.7905 18.7922 19.9505 18.7922 21.3763V26.2865L16.4507 27.959C16.3596 28.024 16.2854 28.1098 16.2342 28.2093C16.183 28.3088 16.1562 28.4191 16.1563 28.531C16.1563 28.7583 16.2659 28.9714 16.4507 29.1032L18.8204 30.7959C19.0055 32.0413 20.082 32.9999 21.378 32.9999H30.4155C31.8415 32.9999 33.0014 31.8399 33.0014 30.4139V21.3764C33.0014 19.9505 31.8414 18.7905 30.4156 18.7905ZM27.3768 28.6706C27.2111 28.6706 27.083 28.618 27.0455 28.4748L26.7591 27.473H25.0343L24.7483 28.4748C24.7106 28.618 24.5825 28.6706 24.4169 28.6706C24.1532 28.6706 23.7993 28.505 23.7993 28.2641C23.7993 28.2489 23.8068 28.2188 23.8143 28.1886L25.268 23.4513C25.3357 23.2254 25.6144 23.1197 25.893 23.1197C26.1793 23.1197 26.4579 23.2254 26.5257 23.4513L27.9793 28.1886C27.9868 28.2188 27.9943 28.2413 27.9943 28.2641C27.9943 28.4973 27.6404 28.6706 27.3768 28.6706Z" fill="#4EBBB8"/>
<path d="M25.2363 26.7048H26.547L25.8915 24.3928L25.2363 26.7048ZM17.3846 21.3765C17.3846 20.4324 17.7147 19.5645 18.2646 18.8802C17.4624 18.8802 16.7181 18.6292 16.1045 18.2027C15.4909 18.6293 14.7466 18.8802 13.9442 18.8802C13.8391 18.8802 13.7382 18.8384 13.6639 18.764C13.5895 18.6897 13.5477 18.5888 13.5477 18.4837C13.5477 18.3785 13.5895 18.2776 13.6639 18.2033C13.7382 18.1289 13.8391 18.0871 13.9442 18.0871C14.486 18.0876 15.0177 17.9407 15.4823 17.662C14.9392 17.0759 14.5781 16.3191 14.4908 15.4815H13.9444C13.7254 15.4815 13.5478 15.3041 13.5478 15.0851C13.5478 14.8661 13.7254 14.6886 13.9444 14.6886H15.7083V13.7257C15.7083 13.6206 15.75 13.5198 15.8244 13.4454C15.8987 13.3711 15.9996 13.3293 16.1047 13.3293C16.2098 13.3293 16.3107 13.3711 16.385 13.4454C16.4594 13.5198 16.5011 13.6206 16.5011 13.7257V14.6886H18.2649C18.4839 14.6886 18.6615 14.8662 18.6615 15.0851C18.6615 15.3041 18.4839 15.4815 18.265 15.4815H17.7186C17.6312 16.3191 17.2702 17.0759 16.7271 17.662C17.1915 17.9408 17.7232 18.0878 18.2649 18.0871C18.4742 18.0871 18.6453 18.2494 18.6601 18.455C19.3733 17.7915 20.3282 17.3844 21.3768 17.3844H23.2094V15.7134L25.5509 14.0409C25.6419 13.9759 25.7161 13.89 25.7673 13.7905C25.8184 13.6911 25.8451 13.5808 25.8451 13.4689C25.8452 13.357 25.8185 13.2467 25.7673 13.1472C25.7161 13.0477 25.6419 12.9618 25.5509 12.8967L23.1811 11.2041C22.9958 9.95859 21.9194 9 20.6234 9H11.586C10.16 9 9 10.16 9 11.5858V20.6236C9 22.0494 10.16 23.2094 11.586 23.2094H17.3846V21.3765Z" fill="#4EBBB8"/>
<path d="M16.1037 17.1665C16.5376 16.7162 16.8322 16.1316 16.9185 15.4817H15.2891C15.3753 16.1316 15.6701 16.7162 16.1037 17.1665Z" fill="#4EBBB8"/>
</g>
<defs>
<clipPath id="clip0_1481_5993">
<rect width="24" height="24" fill="white" transform="translate(9 9)"/>
</clipPath>
</defs>
</svg>
