<svg width="67" height="67" viewBox="0 0 67 67" fill="none" xmlns="http://www.w3.org/2000/svg">
<circle cx="33.5" cy="33.5" r="33.5" fill="#3176BC"/>
<path d="M23.3346 24.7534H44.668C45.3752 24.7534 46.0535 25.0344 46.5536 25.5345C47.0537 26.0346 47.3346 26.7128 47.3346 27.4201V40.7534C47.3346 41.4607 47.0537 42.1389 46.5536 42.639C46.0535 43.1391 45.3752 43.4201 44.668 43.4201H23.3346C22.6274 43.4201 21.9491 43.1391 21.449 42.639C20.9489 42.1389 20.668 41.4607 20.668 40.7534V27.4201C20.668 26.7128 20.9489 26.0346 21.449 25.5345C21.9491 25.0344 22.6274 24.7534 23.3346 24.7534ZM27.3346 35.4201C26.981 35.4201 26.6419 35.5606 26.3918 35.8106C26.1418 36.0607 26.0013 36.3998 26.0013 36.7534C26.0013 37.107 26.1418 37.4462 26.3918 37.6962C26.6419 37.9463 26.981 38.0868 27.3346 38.0868H35.3346C35.6883 38.0868 36.0274 37.9463 36.2774 37.6962C36.5275 37.4462 36.668 37.107 36.668 36.7534C36.668 36.3998 36.5275 36.0607 36.2774 35.8106C36.0274 35.5606 35.6883 35.4201 35.3346 35.4201H27.3346ZM40.668 28.7534V31.4201H43.3346V28.7534H40.668Z" fill="white"/>
</svg>
