<svg width="42" height="42" viewBox="0 0 42 42" fill="none" xmlns="http://www.w3.org/2000/svg">
<path d="M17.582 3.17969C9.63214 3.17969 3.1875 9.62433 3.1875 17.5742C3.1875 25.5241 9.63214 31.9688 17.582 31.9688C25.5319 31.9688 31.9766 25.5241 31.9766 17.5742C31.9679 9.62793 25.5283 3.18834 17.582 3.17969ZM17.582 4.5506C19.6685 4.55224 21.7239 5.05566 23.5749 6.01839C25.4259 6.98113 27.0183 8.37493 28.2176 10.0822L26.5039 11.7958C26.0869 11.5435 25.6095 11.4085 25.122 11.4051C23.6078 11.4051 22.3802 12.6327 22.3802 14.147C22.3826 14.6349 22.5169 15.1131 22.7689 15.5309L18.2805 20.0192C17.8637 19.7651 17.3848 19.6306 16.8966 19.6306C16.4083 19.6306 15.9295 19.7651 15.5127 20.0192L12.3952 16.9018C12.6472 16.484 12.7815 16.0058 12.7839 15.5179C12.7857 14.0066 11.5622 12.78 10.051 12.7781C8.80111 12.7766 7.7091 13.622 7.39756 14.8324H4.85453C6.15235 8.83923 11.45 4.55959 17.582 4.5506ZM26.4929 14.147C26.4929 14.9041 25.8792 15.5179 25.122 15.5179C24.3649 15.5179 23.7511 14.9041 23.7511 14.147C23.7511 13.3898 24.3649 12.776 25.122 12.776C25.8792 12.776 26.4929 13.3898 26.4929 14.147ZM18.2675 22.3724C18.2675 23.1296 17.6538 23.7433 16.8966 23.7433C16.1394 23.7433 15.5257 23.1296 15.5257 22.3724C15.5257 21.6152 16.1394 21.0015 16.8966 21.0015C17.6538 21.0015 18.2675 21.6152 18.2675 22.3724ZM11.413 15.5179C11.413 16.275 10.7992 16.8888 10.042 16.8888C9.28487 16.8888 8.67113 16.275 8.67113 15.5179C8.67113 14.7607 9.28487 14.147 10.042 14.147C10.7992 14.147 11.413 14.7607 11.413 15.5179ZM23.91 28.9619C21.9742 30.0367 19.7962 30.5997 17.582 30.5978C10.3942 30.6027 4.56329 24.7798 4.55841 17.592C4.55807 17.1281 4.58257 16.6645 4.63175 16.2032H7.39756C7.70919 17.4101 8.79563 18.2549 10.042 18.2596C10.53 18.2572 11.0082 18.1229 11.426 17.8709L14.5434 20.9884C14.2914 21.4062 14.1571 21.8844 14.1548 22.3723C14.1548 23.8866 15.3823 25.1141 16.8966 25.1141C18.4108 25.1141 19.6384 23.8866 19.6384 22.3723C19.636 21.8844 19.5017 21.4062 19.2498 20.9884L23.7381 16.5C24.1559 16.752 24.6341 16.8863 25.122 16.8887C26.6363 16.8887 27.8639 15.6611 27.8639 14.1469C27.8615 13.659 27.7272 13.1808 27.4752 12.7629L28.9695 11.2693C32.458 17.5522 30.1928 25.4734 23.91 28.9619Z" fill="#4EBBB8"/>
<path d="M34.718 7.29229C35.9644 7.28758 37.0508 6.44284 37.3625 5.23593H41.5725V3.86502H37.3625C37.0508 2.65811 35.9644 1.81337 34.718 1.80866C33.2037 1.80866 31.9762 3.03622 31.9762 4.55047C31.9785 5.03839 32.1128 5.51659 32.3648 5.93441L31.1605 7.13875C25.3979 -0.368774 14.6404 -1.78338 7.13289 3.97915C-0.374634 9.74168 -1.78924 20.4993 3.97329 28.0068C9.41271 35.0933 19.3836 36.8123 26.8819 31.9563L28.9506 34.025L29.9198 34.9942L35.4377 40.5122C36.8411 41.9155 39.1163 41.9155 40.5197 40.5122C41.923 39.1088 41.923 36.8336 40.5197 35.4302L35.0018 29.9123L34.0325 28.9431L31.9638 26.8744C35.6361 21.218 35.6361 13.9303 31.9638 8.27386L33.3347 6.90295C33.7523 7.15503 34.2302 7.28955 34.718 7.29229ZM34.718 3.17957C35.4751 3.17957 36.0889 3.7933 36.0889 4.55047C36.0889 5.30764 35.4751 5.92138 34.718 5.92138C33.9608 5.92138 33.3471 5.30764 33.3471 4.55047C33.3471 3.7933 33.9609 3.17957 34.718 3.17957ZM39.5504 36.3994C40.4283 37.2576 40.4443 38.665 39.5862 39.5429C38.728 40.4208 37.3206 40.4368 36.4427 39.5787C36.4306 39.5669 36.4187 39.555 36.4069 39.5429L30.889 34.025L34.0325 30.8815L39.5504 36.3994ZM33.0633 29.9123L29.9198 33.0558L28.0225 31.1584C28.1191 31.0844 28.2096 31.0028 28.3049 30.9268C28.4001 30.8507 28.5105 30.7595 28.6126 30.6738C28.7627 30.5477 28.9108 30.4202 29.0561 30.2893C29.1308 30.2207 29.2021 30.1522 29.2755 30.0837C29.5564 29.8205 29.8287 29.5482 30.0918 29.2673C30.1604 29.1939 30.2289 29.1226 30.2975 29.0479C30.4282 28.9023 30.5564 28.7545 30.682 28.6044C30.7679 28.5031 30.8522 28.4005 30.935 28.2967C31.0104 28.2021 31.0919 28.1116 31.166 28.0149L33.0633 29.9123ZM30.4051 26.7284C30.1892 27.03 29.9664 27.3254 29.7313 27.6098C29.6627 27.6928 29.5894 27.773 29.5188 27.8546C29.3096 28.098 29.0929 28.3348 28.869 28.5647C28.7716 28.6652 28.6727 28.7641 28.5722 28.8615C28.3427 29.0859 28.1059 29.3026 27.8621 29.5113C27.7805 29.5798 27.7003 29.6546 27.6174 29.7238C27.3329 29.9589 27.0375 30.1817 26.7359 30.3976C19.64 35.467 9.77814 33.8242 4.70878 26.7284C-0.360582 19.6325 1.28219 9.77064 8.37802 4.70127C15.4738 -0.368089 25.3357 1.2746 30.4051 8.37051C34.3277 13.8612 34.3277 21.2377 30.4051 26.7284Z" fill="#4EBBB8"/>
</svg>
