<svg width="38" height="38" viewBox="0 0 38 38" fill="none" xmlns="http://www.w3.org/2000/svg">
<circle cx="19" cy="19" r="19" fill="#121212"/>
<path d="M22.8315 13.85C22.8315 13.85 23.2565 14.2667 22.8315 13.85C22.2619 13.1997 21.9479 12.3645 21.9482 11.5H19.3732V21.8333C19.3533 22.3925 19.1172 22.9222 18.7146 23.3108C18.3121 23.6994 17.7744 23.9166 17.2148 23.9167C16.0315 23.9167 15.0482 22.95 15.0482 21.75C15.0482 20.3167 16.4315 19.2417 17.8565 19.6833V17.05C14.9815 16.6667 12.4648 18.9 12.4648 21.75C12.4648 24.525 14.7648 26.5 17.2065 26.5C19.8232 26.5 21.9482 24.375 21.9482 21.75V16.5083C22.9923 17.2582 24.246 17.6605 25.5315 17.6583V15.0833C25.5315 15.0833 23.9648 15.1583 22.8315 13.85Z" fill="white"/>
</svg>
