<svg width="38" height="38" viewBox="0 0 38 38" fill="none" xmlns="http://www.w3.org/2000/svg">
<circle cx="19" cy="19" r="19" fill="#121212"/>
<g clip-path="url(#clip0_1481_6068)">
<path d="M28.5838 14.4224C28.4706 14.0184 28.25 13.6527 27.9455 13.3641C27.6324 13.0666 27.2487 12.8538 26.8305 12.7457C25.2655 12.3332 18.9955 12.3332 18.9955 12.3332C16.3816 12.3035 13.7684 12.4343 11.1705 12.7249C10.7523 12.8409 10.3693 13.0585 10.0555 13.3582C9.74718 13.6549 9.52385 14.0207 9.40718 14.4216C9.12693 15.9314 8.99076 17.4644 9.00051 18.9999C8.99051 20.5341 9.12635 22.0666 9.40718 23.5782C9.52135 23.9774 9.74385 24.3416 10.053 24.6357C10.3622 24.9299 10.7472 25.1424 11.1705 25.2549C12.7563 25.6666 18.9955 25.6666 18.9955 25.6666C21.6127 25.6963 24.2293 25.5655 26.8305 25.2749C27.2487 25.1669 27.6324 24.9541 27.9455 24.6566C28.2499 24.368 28.4702 24.0022 28.583 23.5982C28.8706 22.089 29.0104 20.5554 29.0005 19.0191C29.0221 17.4762 28.8825 15.9354 28.5838 14.4216V14.4224ZM17.0022 21.8532V16.1474L22.2188 19.0007L17.0022 21.8532Z" fill="white"/>
</g>
<defs>
<clipPath id="clip0_1481_6068">
<rect width="20" height="20" fill="white" transform="translate(9 9)"/>
</clipPath>
</defs>
</svg>
