<svg width="38" height="38" viewBox="0 0 38 38" fill="none" xmlns="http://www.w3.org/2000/svg">
<circle cx="19" cy="19" r="19" fill="#121212"/>
<g clip-path="url(#clip0_1481_6046)">
<path fill-rule="evenodd" clip-rule="evenodd" d="M15.2195 9.8885C16.197 9.8435 16.5087 9.8335 18.9987 9.8335C21.4887 9.8335 21.8004 9.84433 22.777 9.8885C23.7537 9.93266 24.4204 10.0885 25.0037 10.3143C25.6145 10.5452 26.1687 10.906 26.627 11.3727C27.0937 11.8302 27.4537 12.3835 27.6837 12.9952C27.9104 13.5785 28.0654 14.2452 28.1104 15.2202C28.1554 16.1993 28.1654 16.511 28.1654 19.0002C28.1654 21.4902 28.1545 21.8018 28.1104 22.7793C28.0662 23.7543 27.9104 24.421 27.6837 25.0043C27.4537 25.6161 27.0931 26.1703 26.627 26.6285C26.1687 27.0952 25.6145 27.4552 25.0037 27.6852C24.4204 27.9118 23.7537 28.0668 22.7787 28.1118C21.8004 28.1568 21.4887 28.1668 18.9987 28.1668C16.5087 28.1668 16.197 28.156 15.2195 28.1118C14.2445 28.0677 13.5779 27.9118 12.9945 27.6852C12.3828 27.4551 11.8285 27.0945 11.3704 26.6285C10.904 26.1707 10.5431 25.6167 10.3129 25.0052C10.087 24.4218 9.93203 23.7552 9.88703 22.7802C9.84203 21.801 9.83203 21.4893 9.83203 19.0002C9.83203 16.5102 9.84286 16.1985 9.88703 15.2218C9.9312 14.2452 10.087 13.5785 10.3129 12.9952C10.5435 12.3836 10.9046 11.8296 11.3712 11.3718C11.8287 10.9056 12.3824 10.5447 12.9937 10.3143C13.577 10.0885 14.2437 9.9335 15.2187 9.8885H15.2195ZM22.7029 11.5385C21.7362 11.4943 21.4462 11.4852 18.9987 11.4852C16.5512 11.4852 16.2612 11.4943 15.2945 11.5385C14.4004 11.5793 13.9154 11.7285 13.592 11.8543C13.1645 12.021 12.8587 12.2185 12.5379 12.5393C12.2337 12.8352 11.9997 13.1954 11.8529 13.5935C11.727 13.9168 11.5779 14.4018 11.537 15.296C11.4929 16.2627 11.4837 16.5527 11.4837 19.0002C11.4837 21.4477 11.4929 21.7377 11.537 22.7043C11.5779 23.5985 11.727 24.0835 11.8529 24.4068C11.9995 24.8043 12.2337 25.1652 12.5379 25.461C12.8337 25.7652 13.1945 25.9993 13.592 26.146C13.9154 26.2718 14.4004 26.421 15.2945 26.4618C16.2612 26.506 16.5504 26.5152 18.9987 26.5152C21.447 26.5152 21.7362 26.506 22.7029 26.4618C23.597 26.421 24.082 26.2718 24.4054 26.146C24.8329 25.9793 25.1387 25.7818 25.4595 25.461C25.7637 25.1652 25.9979 24.8043 26.1445 24.4068C26.2704 24.0835 26.4195 23.5985 26.4604 22.7043C26.5045 21.7377 26.5137 21.4477 26.5137 19.0002C26.5137 16.5527 26.5045 16.2627 26.4604 15.296C26.4195 14.4018 26.2704 13.9168 26.1445 13.5935C25.9779 13.166 25.7804 12.8602 25.4595 12.5393C25.1636 12.2352 24.8035 12.0012 24.4054 11.8543C24.082 11.7285 23.597 11.5793 22.7029 11.5385ZM17.8279 21.826C18.4817 22.0982 19.2098 22.1349 19.8878 21.9299C20.5658 21.7249 21.1515 21.2909 21.545 20.702C21.9386 20.1131 22.1154 19.4059 22.0454 18.7011C21.9754 17.9963 21.6629 17.3376 21.1612 16.8377C20.8414 16.5181 20.4547 16.2733 20.029 16.1211C19.6032 15.9689 19.1491 15.913 18.6991 15.9573C18.2492 16.0017 17.8147 16.1453 17.4269 16.3778C17.0391 16.6102 16.7077 16.9258 16.4565 17.3017C16.2052 17.6776 16.0405 18.1046 15.9741 18.5518C15.9077 18.999 15.9413 19.4554 16.0725 19.8881C16.2036 20.3208 16.4291 20.719 16.7326 21.0541C17.0362 21.3892 17.4102 21.6528 17.8279 21.826ZM15.667 15.6685C16.1046 15.231 16.624 14.8839 17.1956 14.6471C17.7673 14.4103 18.38 14.2885 18.9987 14.2885C19.6174 14.2885 20.2301 14.4103 20.8018 14.6471C21.3734 14.8839 21.8928 15.231 22.3304 15.6685C22.7679 16.106 23.1149 16.6254 23.3517 17.1971C23.5885 17.7687 23.7104 18.3814 23.7104 19.0002C23.7104 19.6189 23.5885 20.2316 23.3517 20.8032C23.1149 21.3749 22.7679 21.8943 22.3304 22.3318C21.4468 23.2154 20.2483 23.7119 18.9987 23.7119C17.7491 23.7119 16.5506 23.2154 15.667 22.3318C14.7834 21.4482 14.287 20.2498 14.287 19.0002C14.287 17.7505 14.7834 16.5521 15.667 15.6685ZM24.7554 14.9902C24.8638 14.8879 24.9506 14.7649 25.0106 14.6285C25.0707 14.4921 25.1027 14.345 25.1049 14.1959C25.1071 14.0469 25.0793 13.899 25.0233 13.7608C24.9672 13.6227 24.8841 13.4973 24.7787 13.3919C24.6733 13.2865 24.5478 13.2033 24.4097 13.1473C24.2716 13.0912 24.1236 13.0635 23.9746 13.0656C23.8256 13.0678 23.6785 13.0999 23.5421 13.1599C23.4056 13.2199 23.2826 13.3067 23.1804 13.4152C22.9815 13.626 22.8726 13.9061 22.8768 14.1959C22.881 14.4858 22.998 14.7626 23.203 14.9675C23.408 15.1725 23.6847 15.2895 23.9746 15.2937C24.2644 15.298 24.5445 15.1891 24.7554 14.9902Z" fill="white"/>
</g>
<defs>
<clipPath id="clip0_1481_6046">
<rect width="20" height="20" fill="white" transform="translate(9 9)"/>
</clipPath>
</defs>
</svg>
