<svg width="38" height="38" viewBox="0 0 38 38" fill="none" xmlns="http://www.w3.org/2000/svg">
<circle cx="19" cy="19" r="19" fill="#121212"/>
<g clip-path="url(#clip0_1481_6051)">
<path fill-rule="evenodd" clip-rule="evenodd" d="M9.83203 11.3652C9.83203 10.9589 9.9934 10.5694 10.2806 10.2821C10.5679 9.99487 10.9575 9.8335 11.3637 9.8335H26.632C26.8333 9.83317 27.0327 9.87255 27.2188 9.94939C27.4049 10.0262 27.574 10.139 27.7164 10.2813C27.8588 10.4236 27.9718 10.5925 28.0488 10.7785C28.1259 10.9645 28.1655 11.1639 28.1654 11.3652V26.6335C28.1656 26.8349 28.1261 27.0343 28.0492 27.2203C27.9722 27.4064 27.8594 27.5755 27.717 27.7179C27.5747 27.8603 27.4057 27.9733 27.2197 28.0503C27.0336 28.1273 26.8342 28.1669 26.6329 28.1668H11.3637C11.1625 28.1668 10.9632 28.1272 10.7774 28.0502C10.5915 27.9731 10.4226 27.8602 10.2804 27.7179C10.1381 27.5756 10.0253 27.4067 9.94838 27.2207C9.87146 27.0348 9.83192 26.8355 9.83203 26.6343V11.3652ZM17.0887 16.8235H19.5712V18.0702C19.9295 17.3535 20.8462 16.7085 22.2237 16.7085C24.8645 16.7085 25.4904 18.136 25.4904 20.7552V25.6068H22.8179V21.3518C22.8179 19.8602 22.4595 19.0185 21.5495 19.0185C20.287 19.0185 19.762 19.926 19.762 21.3518V25.6068H17.0887V16.8235ZM12.5054 25.4927H15.1787V16.7085H12.5054V25.4918V25.4927ZM15.5612 13.8435C15.5662 14.0724 15.5255 14.3 15.4414 14.5129C15.3573 14.7259 15.2315 14.9199 15.0714 15.0835C14.9113 15.2472 14.7201 15.3772 14.5091 15.466C14.298 15.5548 14.0714 15.6005 13.8424 15.6005C13.6135 15.6005 13.3869 15.5548 13.1758 15.466C12.9648 15.3772 12.7736 15.2472 12.6135 15.0835C12.4534 14.9199 12.3276 14.7259 12.2435 14.5129C12.1594 14.3 12.1187 14.0724 12.1237 13.8435C12.1336 13.3942 12.319 12.9667 12.6403 12.6524C12.9615 12.3381 13.3931 12.1622 13.8424 12.1622C14.2918 12.1622 14.7234 12.3381 15.0446 12.6524C15.3659 12.9667 15.5513 13.3942 15.5612 13.8435Z" fill="white"/>
</g>
<defs>
<clipPath id="clip0_1481_6051">
<rect width="20" height="20" fill="white" transform="translate(9 9)"/>
</clipPath>
</defs>
</svg>
