<svg width="38" height="38" viewBox="0 0 38 38" fill="none" xmlns="http://www.w3.org/2000/svg">
<circle cx="19" cy="19" r="19" fill="#121212"/>
<path d="M28.7029 13.1141C28.0071 13.4225 27.2596 13.6308 26.4737 13.725C27.2846 13.2398 27.8912 12.4762 28.1804 11.5766C27.4186 12.0291 26.5849 12.3476 25.7154 12.5183C25.1307 11.894 24.3563 11.4803 23.5124 11.3412C22.6684 11.2022 21.8022 11.3456 21.0481 11.7494C20.2941 12.1531 19.6944 12.7945 19.3422 13.5739C18.99 14.3534 18.905 15.2273 19.1004 16.06C17.5568 15.9825 16.0468 15.5813 14.6683 14.8824C13.2898 14.1835 12.0736 13.2026 11.0987 12.0033C10.7654 12.5783 10.5738 13.245 10.5738 13.955C10.5734 14.5941 10.7308 15.2235 11.032 15.7873C11.3332 16.351 11.7689 16.8317 12.3004 17.1866C11.684 17.167 11.0811 17.0005 10.5421 16.7008V16.7508C10.542 17.6473 10.8521 18.5161 11.4197 19.21C11.9874 19.9038 12.7776 20.3799 13.6562 20.5575C13.0844 20.7122 12.4849 20.735 11.9029 20.6242C12.1508 21.3955 12.6337 22.07 13.2841 22.5533C13.9344 23.0365 14.7195 23.3043 15.5296 23.3192C14.1544 24.3987 12.4562 24.9842 10.7079 24.9816C10.3982 24.9817 10.0888 24.9636 9.78125 24.9275C11.5558 26.0685 13.6215 26.674 15.7312 26.6716C22.8729 26.6716 26.7771 20.7566 26.7771 15.6266C26.7771 15.46 26.7729 15.2916 26.7654 15.125C27.5248 14.5758 28.1803 13.8957 28.7013 13.1166L28.7029 13.1141Z" fill="white"/>
</svg>
