<svg width="38" height="38" viewBox="0 0 38 38" fill="none" xmlns="http://www.w3.org/2000/svg">
<circle cx="19" cy="19" r="19" fill="#121212"/>
<path d="M18.999 10.25C16.9704 10.2638 15.0097 10.9821 13.4522 12.2819C11.8946 13.5817 10.8372 15.3823 10.4606 17.3757C10.0841 19.3691 10.4119 21.4314 11.388 23.2098C12.3641 24.9882 13.9277 26.3722 15.8115 27.125C15.6849 26.2965 15.6849 25.4535 15.8115 24.625L16.8428 20.25C16.6796 19.8538 16.5988 19.4285 16.6053 19C16.6053 17.7875 17.3115 16.875 18.1865 16.875C18.345 16.8726 18.5022 16.9045 18.6472 16.9685C18.7923 17.0325 18.9217 17.1272 19.0268 17.2459C19.1319 17.3646 19.21 17.5046 19.2559 17.6563C19.3018 17.8081 19.3144 17.968 19.2928 18.125C19.2928 18.875 18.8178 20 18.5678 21.0375C18.514 21.231 18.5076 21.4346 18.5491 21.6311C18.5907 21.8275 18.679 22.0111 18.8065 22.1663C18.934 22.3214 19.0971 22.4435 19.2818 22.5223C19.4665 22.601 19.6675 22.6341 19.8678 22.6188C21.4178 22.6188 22.6178 20.975 22.6178 18.6125C22.6334 18.1324 22.5487 17.6544 22.3692 17.2088C22.1897 16.7633 21.9194 16.3601 21.5753 16.0249C21.2313 15.6897 20.8212 15.4299 20.3712 15.262C19.9211 15.0942 19.441 15.022 18.9615 15.05C18.4496 15.028 17.9385 15.1101 17.4592 15.2914C16.9799 15.4726 16.5424 15.7493 16.1731 16.1045C15.8039 16.4598 15.5105 16.8863 15.3109 17.3582C15.1112 17.8301 15.0094 18.3376 15.0115 18.85C15.0046 19.5638 15.2233 20.2616 15.6365 20.8438C15.6666 20.8771 15.688 20.9174 15.6989 20.961C15.7098 21.0046 15.7098 21.0501 15.699 21.0938C15.6303 21.3688 15.4803 21.9688 15.4553 22.0875C15.4303 22.2063 15.324 22.2812 15.1615 22.2062C14.0678 21.6937 13.3865 20.1 13.3865 18.8125C13.3865 16.0563 15.3928 13.5187 19.1678 13.5187C22.199 13.5187 24.5615 15.6812 24.5615 18.575C24.5615 21.5875 22.6865 24.0125 20.0178 24.0125C19.6265 24.0261 19.2381 23.9418 18.8877 23.7671C18.5374 23.5925 18.2362 23.3331 18.0115 23.0125L17.4678 25.0938C17.2071 25.9026 16.8415 26.6737 16.3803 27.3875C17.2301 27.6387 18.1129 27.7609 18.999 27.75C21.3197 27.75 23.5453 26.8281 25.1862 25.1872C26.8271 23.5462 27.749 21.3206 27.749 19C27.749 16.6794 26.8271 14.4538 25.1862 12.8128C23.5453 11.1719 21.3197 10.25 18.999 10.25Z" fill="white"/>
</svg>
