<svg width="15" height="10" viewBox="0 0 15 10" fill="none" xmlns="http://www.w3.org/2000/svg">
<path d="M10.7519 9.09546C11.1276 9.09363 11.4874 8.94331 11.7528 8.67728C12.0182 8.41125 12.1676 8.05109 12.1686 7.67533V6.39755H3.66647V7.67533C3.66738 8.05109 3.81682 8.41125 4.0822 8.67728C4.34758 8.94331 4.70738 9.09363 5.08314 9.09546H10.7519ZM14.2949 4.2663H12.1692V1.99338C12.1683 1.6175 12.0188 1.25723 11.7533 0.991181C11.4877 0.72513 11.1278 0.574891 10.7519 0.573242H5.08244C4.70668 0.575074 4.34688 0.725394 4.0815 0.991424C3.81612 1.25745 3.66669 1.61762 3.66577 1.99338V4.40866H1.53939C1.46459 4.40772 1.39037 4.42179 1.32111 4.45002C1.25184 4.47825 1.18894 4.52008 1.13611 4.57304C1.08329 4.62599 1.04161 4.689 1.01355 4.75833C0.985482 4.82767 0.971599 4.90192 0.972719 4.97671C0.972719 5.33158 1.18522 5.54477 1.53939 5.54477H14.2949C14.3697 5.54571 14.444 5.53164 14.5132 5.50341C14.5825 5.47518 14.6454 5.43335 14.6982 5.38039C14.751 5.32744 14.7927 5.26443 14.8208 5.1951C14.8488 5.12576 14.8627 5.0515 14.8616 4.97671C14.8616 4.62116 14.5783 4.2663 14.2949 4.2663Z" fill="white"/>
</svg>
