<svg width="40" height="44" viewBox="0 0 40 44" fill="none" xmlns="http://www.w3.org/2000/svg">
<path d="M0.196152 20.2193C0.405884 20.7436 0.908518 21.0813 1.47624 21.0813H4.39079V38.1738C4.39079 38.3656 4.46699 38.5495 4.60262 38.6852C4.73825 38.8208 4.9222 38.897 5.11401 38.897H16.3021C16.2399 39.4163 16.2002 39.8661 16.1951 40.1771C16.1951 42.2672 17.9004 43.974 20.0028 43.9826C22.0987 43.9747 23.8048 42.2672 23.8048 40.1778V40.1662C23.789 39.7417 23.753 39.3181 23.697 38.897H34.8793C35.0711 38.897 35.2551 38.8208 35.3907 38.6852C35.5264 38.5495 35.6026 38.3656 35.6026 38.1738V21.0813H38.5359C39.0899 21.0813 39.5846 20.7487 39.7957 20.2323C39.9011 19.9763 39.9273 19.6947 39.8709 19.4237C39.8146 19.1527 39.6783 18.9048 39.4797 18.7121L20.9473 0.967307C20.4143 0.461057 19.5783 0.461057 19.0438 0.969477L11.3742 8.31878V3.74517C11.3742 3.55336 11.298 3.36941 11.1623 3.23378C11.0267 3.09815 10.8427 3.02196 10.6509 3.02196H5.11329C4.92148 3.02196 4.73752 3.09815 4.6019 3.23378C4.46627 3.36941 4.39007 3.55336 4.39007 3.74517V15.0107L0.528108 18.7114C0.327752 18.9003 0.188931 19.1452 0.129723 19.4142C0.0705142 19.6831 0.0936623 19.9637 0.196152 20.2193ZM5.8365 4.46839H9.92772V9.70229L5.8365 13.6185V4.46839ZM26.796 30.4542C25.4333 31.8194 23.6903 32.7415 21.7949 33.0997C21.787 33.1012 21.7783 33.0968 21.7704 33.099C21.335 33.1807 20.8931 33.2342 20.457 33.2588C20.1583 33.2711 19.8792 33.2726 19.5479 33.2588C19.1047 33.234 18.6636 33.1803 18.2273 33.0983C18.2201 33.0968 18.2121 33.1004 18.2042 33.099C16.904 32.856 15.669 32.3436 14.5787 31.5947C14.0899 31.2558 13.6311 30.8754 13.2075 30.4578C12.7879 30.0327 12.4056 29.5722 12.0648 29.0815C9.44896 25.2774 9.92845 20.1383 13.2039 16.8621C15.0184 15.0483 17.4318 14.0488 19.9999 14.0488C22.5681 14.0488 24.9814 15.0483 26.796 16.8621C30.5429 20.6098 30.5429 26.7072 26.796 30.4542ZM20.0028 42.5362C18.701 42.5312 17.6415 41.4731 17.6415 40.1901C17.6466 39.8885 17.7023 39.2297 17.844 38.2844C17.9226 37.7856 18.0114 37.2884 18.1102 36.7932C18.2563 36.0526 18.4284 35.3164 18.6143 34.6322C18.6287 34.6337 18.6439 34.6337 18.6576 34.6358C18.9267 34.6684 19.1993 34.6922 19.4807 34.7038H19.4987C19.668 34.711 19.8314 34.7183 19.9999 34.7183C20.1749 34.7183 20.35 34.711 20.5264 34.7038C20.8013 34.6922 21.0746 34.6676 21.3437 34.6351C21.3574 34.6337 21.3711 34.6337 21.3856 34.6315C21.5707 35.3149 21.7429 36.0504 21.889 36.7939C21.9931 37.319 22.0842 37.8237 22.1551 38.2844C22.2961 39.2246 22.3525 39.8806 22.3576 40.1836C22.3536 40.8066 22.1043 41.4029 21.6636 41.8433C21.223 42.2836 20.6258 42.5326 20.0028 42.5362ZM19.9963 2.05936L38.3522 19.6349H34.8793C34.6875 19.6349 34.5036 19.7111 34.368 19.8467C34.2323 19.9824 34.1561 20.1663 34.1561 20.3581V37.4506H23.4829L23.4721 37.3898C23.4215 37.1056 23.3672 36.8134 23.3079 36.5133C23.1654 35.7876 22.9984 35.0668 22.8074 34.3523C24.7041 33.8572 26.4341 32.8645 27.8186 31.4768C32.1297 27.1665 32.1297 20.1513 27.8186 15.8395C25.7314 13.7523 22.9543 12.6024 19.9999 12.6024C17.0456 12.6024 14.2685 13.7523 12.1813 15.8395C8.41259 19.6074 7.86222 25.5219 10.8744 29.9031C11.2577 30.4571 11.6967 30.9858 12.1849 31.4812C12.6708 31.9602 13.197 32.3965 13.7579 32.7851C14.8109 33.5083 15.968 34.0233 17.1946 34.3429C17.0025 35.0603 16.8346 35.7839 16.6912 36.5126C16.6319 36.8127 16.5784 37.1042 16.5278 37.3877L16.5162 37.4506H5.83722V20.3581C5.83722 20.1663 5.76103 19.9824 5.6254 19.8467C5.48977 19.7111 5.30582 19.6349 5.11401 19.6349H1.65415L19.9963 2.05936Z" fill="#3176BC"/>
</svg>
