<svg width="13" height="12" viewBox="0 0 13 12" fill="none" xmlns="http://www.w3.org/2000/svg">
<path fill-rule="evenodd" clip-rule="evenodd" d="M0.971302 3.56277C0.667969 4.11518 0.667969 4.7831 0.667969 6.11777V7.0056C0.667969 9.2806 0.667969 10.4187 1.35164 11.1257C2.03472 11.8327 3.13489 11.8327 5.33464 11.8327H7.66797C9.86772 11.8327 10.9679 11.8327 11.651 11.1257C12.3346 10.4187 12.3346 9.28118 12.3346 7.0056V6.11835C12.3346 4.7831 12.3346 4.11577 12.0313 3.56277C11.7291 3.00918 11.1756 2.66618 10.069 1.97902L8.9023 1.2551C7.73272 0.528849 7.14764 0.166016 6.5013 0.166016C5.85497 0.166016 5.27047 0.528849 4.1003 1.2551L2.93364 1.97902C1.82705 2.66618 1.27405 3.00918 0.971302 3.56277ZM5.01205 7.98093C4.96586 7.94669 4.91337 7.92188 4.85759 7.90792C4.80181 7.89396 4.74383 7.89113 4.68696 7.89958C4.63008 7.90803 4.57543 7.9276 4.52611 7.95717C4.4768 7.98674 4.43379 8.02574 4.39955 8.07193C4.36531 8.11813 4.3405 8.17061 4.32654 8.22639C4.31258 8.28217 4.30975 8.34015 4.3182 8.39703C4.32665 8.45391 4.34622 8.50856 4.37579 8.55787C4.40536 8.60719 4.44436 8.65019 4.49055 8.68443C5.05814 9.10443 5.75172 9.35352 6.5013 9.35352C7.25089 9.35352 7.94447 9.10443 8.51205 8.68443C8.60527 8.61528 8.66719 8.51193 8.6842 8.39711C8.70121 8.2823 8.67192 8.16544 8.60276 8.07222C8.53361 7.97901 8.43025 7.91709 8.31544 7.90008C8.20063 7.88307 8.08377 7.91236 7.99055 7.98152C7.56589 8.29652 7.05314 8.47852 6.5013 8.47852C5.94947 8.47852 5.43672 8.29535 5.01205 7.98093Z" fill="#4EBBB8"/>
</svg>
